<svg id="Layer_1" data-name="Layer 1" xmlns="http://www.w3.org/2000/svg" viewBox="0 0 182.44 185.72"><title>Artboard 2 copy 4</title><path d="M105.42,183.82h-28V164A72.08,72.08,0,0,1,61,158.65l-11.65,16L26.66,158.23l11.67-16.06a72.9,72.9,0,0,1-10.2-14L9.28,134.3.63,107.69l18.88-6.14a69.63,69.63,0,0,1,0-17.31L.63,78.11,9.28,51.49l18.85,6.13a72.9,72.9,0,0,1,10.2-14L26.66,27.57,49.31,11.12,61,27.15a72.08,72.08,0,0,1,16.47-5.33V2h28V21.82a72.32,72.32,0,0,1,16.48,5.33l11.65-16,22.64,16.45L144.52,43.63a72.48,72.48,0,0,1,10.2,14l18.85-6.13,8.65,26.62-18.87,6.13a70.93,70.93,0,0,1,0,17.31l18.87,6.14-8.65,26.61-18.85-6.12a72.48,72.48,0,0,1-10.2,14l11.67,16.06-22.64,16.45-11.65-16A72.16,72.16,0,0,1,105.42,164Zm-24-4h20V160.65l2.46-.45a67.9,67.9,0,0,0,17.05-5.52l2.25-1.08,11.25,15.49,16.17-11.75-11.27-15.51,1.72-1.81a68.76,68.76,0,0,0,10.56-14.48l1.19-2.19L171,129.26l6.17-19L159,104.33l.33-2.47a67.2,67.2,0,0,0,0-17.92L159,81.47l18.23-5.93-6.17-19L152.8,62.45l-1.19-2.19a68.76,68.76,0,0,0-10.56-14.48L139.33,44,150.6,28.45,134.43,16.7,123.18,32.19l-2.25-1.08a68.42,68.42,0,0,0-17.05-5.51l-2.46-.45V6h-20V25.15L79,25.6a68.28,68.28,0,0,0-17.05,5.51l-2.26,1.08L48.42,16.7,32.25,28.45,43.52,44,41.8,45.78A68.76,68.76,0,0,0,31.24,60.26l-1.19,2.19-18.2-5.92-6.18,19L23.9,81.47l-.32,2.47a66.11,66.11,0,0,0,0,17.92l.32,2.47L5.67,110.25l6.18,19,18.2-5.91,1.19,2.19A68.76,68.76,0,0,0,41.8,140l1.72,1.81L32.25,157.34l16.17,11.75L59.67,153.6l2.26,1.08A67.77,67.77,0,0,0,79,160.2l2.45.45Zm10.16-34.67a53.75,53.75,0,0,1-12.83-1.68A52.18,52.18,0,0,1,51.6,59.18,52.38,52.38,0,0,1,82.17,41.51a49.81,49.81,0,0,1,19.4.19,52.17,52.17,0,0,1,42,53.59h0a52.16,52.16,0,0,1-46.7,49.46A29.94,29.94,0,0,1,91.59,145.15Zm-.46-100.5a40.7,40.7,0,0,0-8.2.79A48.35,48.35,0,0,0,54.65,61.77a48.17,48.17,0,0,0,25.08,77.82,49.8,49.8,0,0,0,11.86,1.56,25.9,25.9,0,0,0,4.56-.34l.19,0a48.17,48.17,0,0,0,4.4-95.17A47.44,47.44,0,0,0,91.13,44.65Z" style="fill:#3b4e60"/></svg>