<svg id="Layer_1" data-name="Layer 1" xmlns="http://www.w3.org/2000/svg" viewBox="0 0 182.44 185.72"><title>Artboard 2 copy</title><path d="M160.06,41.19a88.61,88.61,0,0,0-55.24-31c-.16,0-16.6-3-32.94,1.25h0A89,89,0,0,0,9.63,64a6.71,6.71,0,1,0,.91.42A88,88,0,0,1,72.37,12.31l2-.43v-.06A88,88,0,0,1,179.65,98.09a88.07,88.07,0,0,1-2.27,19.9l1,.23a89,89,0,0,0-18.29-77ZM13.43,70.27A6.14,6.14,0,1,1,7.3,64.13,6.15,6.15,0,0,1,13.43,70.27Z" style="fill:#6dcfd2"/><path d="M178.73,118.82l-1.95-.46.11-.48A87.43,87.43,0,0,0,104.58,11.62,86.37,86.37,0,0,0,75,12.21h0l-.48.16-2,.43A87.44,87.44,0,0,0,11.17,64.21a7.36,7.36,0,1,1-1.82-.83A89.41,89.41,0,0,1,71.66,10.93l.1,0c16.36-4.22,33-1.28,33.15-1.25a89.46,89.46,0,0,1,73.93,108.68Zm-.75-1.21h0a88.18,88.18,0,0,0,2.17-19.24A88.18,88.18,0,0,1,178,117.61Zm2.17-19.39v0ZM166,50.11a88.54,88.54,0,0,1,14.15,48A88.54,88.54,0,0,0,166,50.11ZM7.3,64.63a5.64,5.64,0,1,0,5.63,5.64A5.65,5.65,0,0,0,7.3,64.63ZM17.68,49.8Zm8.85-11.4Q24,41.18,21.67,44.18c-1.39,1.81-2.72,3.67-4,5.59,1.25-1.92,2.58-3.78,4-5.59Q24,41.18,26.53,38.4Zm87.94-25.78a88.14,88.14,0,0,1,40.43,23.6A88.14,88.14,0,0,0,114.47,12.62Zm-48.13.75h0Zm0,0h0Zm0,0h0Zm4.72-1.27c-1.58.38-3.16.81-4.72,1.27C68,12.89,69.53,12.46,71.12,12.08Zm1.38-.33h0l-.51.12.26-.06,1.57-.33.44-.16a87.87,87.87,0,0,1,30.35-.72C103.07,10.34,87.9,7.91,72.5,11.75Z" style="fill:#6dcfd2"/><path d="M105.5,182.74l-46.59-6.45,2.64-19,46.59,6.46ZM64.55,172l36.69,5.08L102.5,168l-36.68-5.08Z" style="fill:#3b4e60"/><path d="M107.14,157.4l-44.4-6.15L38.54,110,90.12,28.9l10.71,1.49L92,97.89l-2,.18c-.36,0-9,.9-10.13,8.77-1.18,8.49,4.12,13.89,9.71,14.67a12,12,0,0,0,8.34-2.3,11.76,11.76,0,0,0,4.94-7.92c1-7.11-3.39-10.6-7.23-12.26L94,98.29l.21-1.83c.49-4.43,8-57.24,8.81-63.25l.36-2.55,11,1.52L141.66,124ZM65.82,146.63l39.59,5.49L136,122.53,110.43,36.69l-2.85-.4c-1.33,9.42-7,49.46-8.23,59A15.67,15.67,0,0,1,107.83,112c-1.1,7.91-9.41,15.78-18.92,14.48a16.31,16.31,0,0,1-10.61-6.23c-2.06-2.67-4.31-7.28-3.36-14.08,1.24-9,9-11.84,12.62-12.7l7.67-58.79-2.62-.37L44.4,110.08Z" style="fill:#3b4e60"/></svg>