<svg id="Layer_1" data-name="Layer 1" xmlns="http://www.w3.org/2000/svg" viewBox="0 0 70.36 66.86"><title>Artboard 2 copy 5</title><path d="M15.05,20.11h-9a3.25,3.25,0,0,0-3.22,3.33V62.29a3.42,3.42,0,0,0,3.34,3.33h8.88a3.4,3.4,0,0,0,3.33-3.22v-39A3.42,3.42,0,0,0,15.05,20.11ZM16.16,62.4a1.1,1.1,0,0,1-1.11,1H6.17a1.2,1.2,0,0,1-1.12-1.11V23.44a1.1,1.1,0,0,1,1-1.11h9a1.19,1.19,0,0,1,1.11,1.11Z" style="fill:#3b4e60"/><path d="M52.79,19H50.46a15,15,0,0,0-11.1,4.89V22.33a2.39,2.39,0,0,0-2.22-2.22H26a2.27,2.27,0,0,0-2.22,2.1V63.62a2.18,2.18,0,0,0,2.22,2H38.25a2.18,2.18,0,0,0,2.22-2v-24a6.27,6.27,0,0,1,6.11-6.55A6.55,6.55,0,0,1,51.24,35c1.11,1,1.55,2.56,1.55,4.55V63.4A2.39,2.39,0,0,0,55,65.62H66.12a2.39,2.39,0,0,0,2.22-2.22V34.76A15.44,15.44,0,0,0,52.79,19Zm13.33,44.3L66,63.4H55.12L55,39.53c0-2.66-.66-4.66-2.11-6.1a8.7,8.7,0,0,0-6.21-2.56c-4.67.11-7.8,4.32-7.8,9.2,0,5.94-.53,23.33-.53,23.33H26.15V22.33h11l.11.11v7l3-3,.11-.11a12.65,12.65,0,0,1,10.21-5.1H52.9c7.44,0,12.7,5,13.22,13.54Z" style="fill:#3b4e60"/><circle cx="10.61" cy="9.01" r="7.77" style="fill:none;stroke:#3b4e60;stroke-miterlimit:10;stroke-width:2.07022251550842px"/><rect x="4.36" y="21.22" width="12.9" height="43.12" rx="1.74" ry="1.74" style="fill:none;stroke:#3b4e60;stroke-miterlimit:10;stroke-width:2.07022251550842px"/></svg>