<svg id="Layer_1" data-name="Layer 1" xmlns="http://www.w3.org/2000/svg" viewBox="0 0 70.36 66.86"><title>Artboard 2 copy 6</title><circle cx="52.66" cy="20.94" r="3.34" style="fill:#3b4e60"/><path d="M55.81,66H14.55A6.53,6.53,0,0,1,8,59.44V18.17a6.53,6.53,0,0,1,6.52-6.52H55.81a6.54,6.54,0,0,1,6.53,6.52V59.44A6.54,6.54,0,0,1,55.81,66ZM14.55,13.72a4.46,4.46,0,0,0-4.45,4.45V59.44a4.46,4.46,0,0,0,4.45,4.45H55.81a4.46,4.46,0,0,0,4.46-4.45V18.17a4.46,4.46,0,0,0-4.46-4.45Z" style="fill:#3b4e60"/><rect x="9.06" y="27.66" width="14.07" height="2.07" style="fill:#3b4e60"/><rect x="47.23" y="27.66" width="14.07" height="2.07" style="fill:#3b4e60"/><path d="M35.18,55.57A16.77,16.77,0,1,1,52,38.8,16.79,16.79,0,0,1,35.18,55.57Zm0-31.46A14.7,14.7,0,1,0,49.88,38.8,14.71,14.71,0,0,0,35.18,24.11Z" style="fill:#3b4e60"/></svg>