<svg id="Layer_1" data-name="Layer 1" xmlns="http://www.w3.org/2000/svg" viewBox="0 0 182.44 185.72"><title>Artboard 2</title><path d="M91.82,183.48a95.58,95.58,0,0,1-17.48-1.7h0l-1.47-.25a91.82,91.82,0,0,1-10.43-2.78l-.27-.08c-.88-.3-1.75-.6-2.61-.92l-1.38-.51-1.77-.7c-.76-.31-1.52-.64-2.27-1l-.26-.11-.75-.34c-1.05-.47-2.12-1-3.17-1.51l-.16-.08a90.63,90.63,0,0,1-16.77-11l-.37-.31q-1.27-1.06-2.49-2.16l-.66-.6-.12-.11c-.68-.62-1.34-1.25-2-1.89l-1-1c-.59-.6-1.18-1.21-1.76-1.83l-.14-.15-.82-.87-.21-.22c-.11-.12-.22-.23-.32-.35l-.63-.72-.56-.66c-.36-.41-.71-.81-1.05-1.23-.48-.58-.95-1.17-1.42-1.76l-.31-.39c-.16-.19-.32-.38-.47-.58l-1.85-2.4.05,0a91,91,0,0,1,1.8-108.5A91.21,91.21,0,0,1,70.54,3.61c16.67-4.28,33.56-1.3,33.73-1.27A91,91,0,0,1,162.6,148.21l0,0-1.91,2.32c-.2.24-.41.47-.61.7l-.83,1c-.26.31-.52.61-.79.91l-.31.33c-.31.34-.62.67-.94,1l-.7.74c-.34.37-.68.73-1,1.08-.65.67-1.32,1.31-2,1.95l-.27.26-.49.46c-.85.79-1.71,1.56-2.59,2.32l-.23.19a90.38,90.38,0,0,1-45.75,20.87h0A56.33,56.33,0,0,1,91.82,183.48Zm-17-6.7c14.77,2.81,24.67,1.36,27.56.8a143.82,143.82,0,0,0,20-38.49l.57-1.71a146.07,146.07,0,0,0-68.4-.75c.38,1.19.74,2.29,1.11,3.34A142.89,142.89,0,0,0,74.82,176.78Zm53-38.09c-.22.67-.44,1.34-.67,2a148.52,148.52,0,0,1-17.72,35.54,86.06,86.06,0,0,0,37.21-18.53l.24-.2c.78-.67,1.55-1.36,2.31-2.06l.7-.66c.61-.57,1.21-1.16,1.8-1.75l1.12-1.14,1.33-1.41.76-.84A142.21,142.21,0,0,0,127.8,138.69ZM61.26,173.06c2.06.75,4.18,1.43,6.32,2A147.38,147.38,0,0,1,51,141.61c-.42-1.2-.83-2.44-1.26-3.77a144.41,144.41,0,0,0-25.09,9.27l.52.62c.4.47.8,1,1.21,1.41s1,1.1,1.49,1.64c.34.37.64.7,1,1,.55.58,1.11,1.14,1.68,1.7l.26.26.6.59c.73.7,1.47,1.39,2.22,2.06l.38.34a86.25,86.25,0,0,0,18.4,12.46l.43.21c.88.44,1.77.85,2.66,1.25l1,.47,2,.82c.57.23,1.15.47,1.73.69l.81.3ZM50.8,171.8l-.17.48.22-.45Zm78.46-37.89a147.13,147.13,0,0,1,28.92,11.85,86.29,86.29,0,0,0,18.56-50.94H135.09A150.23,150.23,0,0,1,129.26,133.91ZM4.93,94.82a85.29,85.29,0,0,0,16.54,48.27,148.92,148.92,0,0,1,26.8-10,149.38,149.38,0,0,1-5.59-38.23Zm82.3,33.1a150.45,150.45,0,0,1,37.21,4.67,145.22,145.22,0,0,0,5.65-37.77H47.68a144.44,144.44,0,0,0,5.44,37A149.29,149.29,0,0,1,87.23,127.92Zm47.85-38.1h41.66a86.27,86.27,0,0,0-18.57-50.93,147.22,147.22,0,0,1-28.93,11.85A149.18,149.18,0,0,1,135.08,89.82Zm-87.39,0h82.39a144.17,144.17,0,0,0-5.66-37.76,150.29,150.29,0,0,1-37.19,4.67,149.76,149.76,0,0,1-34.1-3.92A144.23,144.23,0,0,0,47.69,89.82Zm-42.76,0H42.69A149.11,149.11,0,0,1,48.28,51.6,148.3,148.3,0,0,1,21.47,41.55,85.11,85.11,0,0,0,4.93,89.82ZM54.57,48A145.85,145.85,0,0,0,123,47.27,142.9,142.9,0,0,0,102.41,7.11a86.15,86.15,0,0,0-27.55.64A143.68,143.68,0,0,0,54.57,48ZM24.62,37.52A142.72,142.72,0,0,0,49.71,46.8,148.36,148.36,0,0,1,67.56,9.53,86.49,86.49,0,0,0,24.62,37.52ZM109.43,8.39A148.33,148.33,0,0,1,127.79,46a143.46,143.46,0,0,0,27.08-11A86.09,86.09,0,0,0,109.43,8.39Z" style="fill:#3b4e60"/><path d="M168.74,8.77a6.7,6.7,0,1,0-7.2,6.68v93.36H108.72v55.31H9v1H109.72V109.81h52.82V15.45A6.71,6.71,0,0,0,168.74,8.77ZM162,14.92a6.15,6.15,0,1,1,6.14-6.15A6.15,6.15,0,0,1,162,14.92Z" style="fill:#6dcfd2"/><path d="M110.22,165.62H8.53v-2h99.69V108.31H161V15.9a7.2,7.2,0,1,1,2,0v94.41H110.22Zm-100.69-1h99.69V109.31h0v55.31ZM162,3.13a5.65,5.65,0,1,0,5.64,5.64A5.65,5.65,0,0,0,162,3.13Z" style="fill:#6dcfd2"/></svg>