<svg id="Layer_1" data-name="Layer 1" xmlns="http://www.w3.org/2000/svg" viewBox="0 0 182.44 185.72"><title>Artboard 2 copy 3</title><polygon points="161.13 122.07 160.47 121.32 180.46 103.74 160.47 85.55 161.14 84.81 181.96 103.75 161.13 122.07" style="fill:#6dcfd2"/><path d="M161.09,122.77l-1.32-1.5,19.94-17.54-20-18.15,1.35-1.48,21.6,19.66Zm.08-37.25,20,18.22-4.09,3.6,4.09-3.6Z" style="fill:#6dcfd2"/><path d="M129.79,181.83l-21-39.61a56.45,56.45,0,0,1-13.88,3.24,31.34,31.34,0,0,1-5.69.44,58.3,58.3,0,0,1-14-1.84A57,57,0,0,1,45.51,52a57.2,57.2,0,0,1,33.38-19.3,55,55,0,0,1,21.19.2,57,57,0,0,1,45.85,58.55h0a56.92,56.92,0,0,1-16.34,37.37,57.77,57.77,0,0,1-7.77,6.55l21,39.57Zm-16.14-41.08,18.21,34.32,4.2-2.22-18.21-34.32ZM82.54,37.13l-1.41.25a52,52,0,0,0-4.74,101.83c10.68,2.66,17.35,1.38,17.62,1.32l.26,0A52,52,0,1,0,82.54,37.13Z" style="fill:#3b4e60"/><polygon points="21.31 121.69 0.48 103.37 21.3 84.43 21.98 85.17 1.98 103.36 21.97 120.94 21.31 121.69" style="fill:#6dcfd2"/><path d="M21.35,122.39l-21.62-19,21.6-19.66,1.35,1.48L2.73,103.35l19.94,17.54Zm-20.12-19L5.35,107l-4.12-3.62,20-18.23Z" style="fill:#6dcfd2"/></svg>