<svg id="Layer_1" data-name="Layer 1" xmlns="http://www.w3.org/2000/svg" viewBox="0 0 182.44 185.72"><title>Artboard 2 copy 2</title><path d="M180.59,16.72a6.67,6.67,0,1,0-7.16,6.64V55.41h-42.5V74.54H118.05v85.69H103V101.79H77.71v58.44h-13v-34.4H40.22v34.4H21v1H41.22v-34.4H63.69v34.4h15V102.79H102v58.44h17V75.54h12.88V56.41h42.5v-33A6.66,6.66,0,0,0,180.59,16.72Zm-6.66,6.11a6.11,6.11,0,1,1,6.1-6.11A6.12,6.12,0,0,1,173.93,22.83Z" style="fill:#6dcfd2"/><path d="M119.55,161.73h-18V103.29H79.21v58.44h-16v-34.4H41.72v34.4H20.49v-2H39.72v-34.4H65.19v34.4h12V101.29h26.32v58.44h14V74h12.88V54.91h42.5V23.81a7.16,7.16,0,1,1,2,0v33.1h-42.5V76H119.55Zm-17-1h16V75h12.88V55.91h0V75H118.55v85.69Zm-38.34,0h14V102.29h0v58.44Zm-42.7,0H40.72v-34.4h0v34.4ZM173.93,11.12a5.61,5.61,0,1,0,5.6,5.6A5.61,5.61,0,0,0,173.93,11.12Z" style="fill:#6dcfd2"/><polygon points="161.71 170.14 161.71 183.2 2.35 183.2 2.35 23.84 15.41 23.84 15.41 170.14 161.71 170.14" style="fill:none;stroke:#3b4e60;stroke-miterlimit:10;stroke-width:4px"/></svg>