<svg id="Layer_1" data-name="Layer 1" xmlns="http://www.w3.org/2000/svg" viewBox="0 0 70.36 66.86"><title>Artboard 2 copy 7</title><path d="M23.64,66.05A38.54,38.54,0,0,1,3.77,60.11a1.26,1.26,0,0,1-.56-1.41,1.24,1.24,0,0,1,1.2-.91H7.49a24,24,0,0,0,12.42-3.3,13.7,13.7,0,0,1-9.77-9.32,1.26,1.26,0,0,1,.39-1.32,1.23,1.23,0,0,1,.77-.29A13.72,13.72,0,0,1,5.86,32.5a1.24,1.24,0,0,1,1.71-1.16l1.07.42a13.38,13.38,0,0,1-2.78-8.11,12.92,12.92,0,0,1,1.71-7.18,1.26,1.26,0,0,1,2-.14A34.27,34.27,0,0,0,33.19,28.84c0-.42,0-.86,0-1.34,0-7.56,6.21-13.94,13.56-13.94a14.61,14.61,0,0,1,9.59,3.71,22.14,22.14,0,0,0,7-2.74,1.27,1.27,0,0,1,1.41,0,1.25,1.25,0,0,1,.49,1.33A11.79,11.79,0,0,1,63,20.37a13.26,13.26,0,0,0,2.35-.91A1.25,1.25,0,0,1,67,21.19a23.14,23.14,0,0,1-6.38,6.94V29C60.66,47.23,46.81,66.05,23.64,66.05ZM9.32,60.23a34,34,0,0,0,14.32,3.33C45.25,63.56,58.17,46,58.17,29V27.5a1.25,1.25,0,0,1,.52-1,24.63,24.63,0,0,0,3.88-3.41c-1.18.28-2.41.47-3.75.66A1.25,1.25,0,0,1,58,21.41a10.23,10.23,0,0,0,3.46-3.14,39.69,39.69,0,0,1-5.23,1.59,1.25,1.25,0,0,1-1.19-.33,12.28,12.28,0,0,0-8.35-3.48c-5.89,0-11.06,5.35-11.06,11.45a4.74,4.74,0,0,0,.25,2.13,1.23,1.23,0,0,1-.06,1.23,1.27,1.27,0,0,1-1.1.58,36.92,36.92,0,0,1-25.81-12,12.68,12.68,0,0,0-.59,4.26A11.33,11.33,0,0,0,13.57,33a1.24,1.24,0,0,1-.7,2.28,12.74,12.74,0,0,1-4.37-.91,11.11,11.11,0,0,0,8.85,9.21,1.26,1.26,0,0,1,1,1.15A1.24,1.24,0,0,1,17.5,46a12.48,12.48,0,0,1-4.15.45,11.17,11.17,0,0,0,9.91,6,1.23,1.23,0,0,1,1.17.83,1.25,1.25,0,0,1-.38,1.39A25.46,25.46,0,0,1,9.32,60.23Z" style="fill:#3b4e60"/></svg>